<?xml version="1.0" standalone="no"?>
<!DOCTYPE svg PUBLIC "-//W3C//DTD SVG 20010904//EN"
 "http://www.w3.org/TR/2001/REC-SVG-20010904/DTD/svg10.dtd">
<svg version="1.0" xmlns="http://www.w3.org/2000/svg"
 width="657.000000pt" height="26.000000pt" viewBox="0 0 657.000000 26.000000"
 preserveAspectRatio="xMidYMid meet">

<g transform="translate(0.000000,26.000000) scale(0.100000,-0.100000)"
fill="#105555" stroke="none">
<path d="M20 155 c-6 -8 -10 -22 -8 -32 4 -21 45 -30 61 -14 15 15 6413 16
6422 1 10 -15 52 -12 59 5 12 32 -17 61 -49 49 -8 -4 -15 -10 -15 -15 0 -5
-1330 -9 -3204 -9 -2835 0 -3205 2 -3216 15 -16 19 -34 19 -50 0z"/>
</g>
</svg>
